<svg t="1675061405134" class="icon" viewBox="0 0 1024 1024" version="1.1" xmlns="http://www.w3.org/2000/svg" p-id="3029" width="32" height="32"><path d="M430.08 412.7232h163.84a51.2 51.2 0 0 0 51.2-51.2v-163.84a51.2 51.2 0 0 0-51.2-51.2H430.08a51.2 51.2 0 0 0-51.2 51.2v163.84a51.2 51.2 0 0 0 51.2 51.2zM870.4 672.7168h-25.6512v-124.2624c0-42.3424-34.4576-76.8-76.8-76.8h-512c-42.3424 0-76.8 34.4576-76.8 76.8v124.2624H153.6a51.2 51.2 0 0 0-51.2 51.2v102.4a51.2 51.2 0 0 0 51.2 51.2h102.4a51.2 51.2 0 0 0 51.2-51.2v-102.4a51.2 51.2 0 0 0-51.2-51.2h-25.6512v-124.2624a25.6 25.6 0 0 1 25.6-25.6h230.4v149.8624H460.8a51.2 51.2 0 0 0-51.2 51.2v102.4a51.2 51.2 0 0 0 51.2 51.2h102.4a51.2 51.2 0 0 0 51.2-51.2v-102.4a51.2 51.2 0 0 0-51.2-51.2h-25.6512v-149.8624h230.4a25.6 25.6 0 0 1 25.6 25.6v124.2624H768a51.2 51.2 0 0 0-51.2 51.2v102.4a51.2 51.2 0 0 0 51.2 51.2h102.4a51.2 51.2 0 0 0 51.2-51.2v-102.4a51.2 51.2 0 0 0-51.2-51.2z" p-id="3030" fill="#ffffff"></path></svg>
