<svg t="1672221446909" class="icon" viewBox="0 0 1024 1024" version="1.1" xmlns="http://www.w3.org/2000/svg" p-id="15640" width="32" height="32"><path d="M876.724 589.857c-44.912 6.856-84.278 34.486-106.802 74.963-22.821 40.254-26.447 89.007-9.854 132.349-38.246 35.204-83.185 61.893-131.978 78.376-28.239-36.503-71.216-57.697-116.616-57.498-45.395-0.193-88.382 20.979-116.65 57.457-48.787-16.478-93.721-43.148-131.978-78.336 16.605-43.335 12.989-92.088-9.813-132.349-22.536-40.483-61.919-68.119-106.843-74.963a397.187 397.187 0 0 1 0-156.559c44.912-6.844 84.29-34.456 106.843-74.921 22.802-40.272 26.417-89.037 9.813-132.391 38.246-35.204 83.185-61.886 131.978-78.37 28.257 36.503 71.244 57.703 116.65 57.534 46.295 0 88.673-21.451 116.616-57.534 48.793 16.472 93.738 43.16 131.978 78.37-16.587 43.359-12.962 92.124 9.854 132.391 22.54 40.453 61.902 68.065 106.802 74.921a395.215 395.215 0 0 1 0 156.56m65.465-203.863c-4.707-17.425-20.708-29.032-38.273-27.776-28.337 1.989-55.289-12.829-69.387-38.15-14.288-25.209-13.338-56.579 2.464-80.824 9.677-14.993 7.895-34.884-4.291-47.808-57.845-61.307-131.2-104.83-211.812-125.679-17.03-4.413-34.745 3.98-42.525 20.148-12.517 26.18-38.486 42.734-66.89 42.633-28.398 0.1-54.365-16.454-66.882-42.633-7.793-16.156-25.501-24.549-42.527-20.148-80.612 20.832-153.967 64.342-211.816 125.639-12.233 12.93-14.037 32.867-4.326 47.883 15.802 24.233 16.758 55.591 2.464 80.79-14.122 25.298-41.056 40.109-69.387 38.15-17.582-1.362-33.635 10.293-38.24 27.776a470.177 470.177 0 0 0-16.934 125.603c0 42.675 5.67 84.923 16.934 125.569 4.759 17.372 20.702 28.951 38.24 27.77 28.319-1.846 55.203 12.952 69.387 38.191 14.288 25.363 13.355 56.311-2.464 80.749-9.687 15.01-7.889 34.924 4.326 47.842 57.832 61.319 131.193 104.836 211.816 125.645 17.02 4.435 34.739-3.946 42.527-20.108 12.517-26.174 38.49-42.71 66.882-42.599 28.576 0 54.206 16.32 66.89 42.599 7.792 16.156 25.501 24.543 42.525 20.148 80.624-20.832 153.979-64.36 211.812-125.685 12.226-12.936 14.008-32.873 4.291-47.882-15.773-24.211-16.724-55.533-2.464-80.709 14.002-25.432 41.017-40.301 69.387-38.191 17.532 1.076 33.465-10.456 38.273-27.77a471.726 471.726 0 0 0 16.934-125.569c0-42.674-5.703-84.922-16.934-125.643M511.474 626.517c-61.698 0-111.914-51.599-111.914-114.919 0-63.395 50.216-114.918 111.914-114.918 61.703 0 111.914 51.523 111.914 114.918 0 63.319-50.211 114.919-111.914 114.919m0-306.449c-102.846 0-186.521 85.882-186.521 191.53 0 105.608 83.675 191.53 186.521 191.53 102.852 0 186.521-85.956 186.521-191.53 0-105.649-83.669-191.53-186.521-191.53" fill="#ffffff" p-id="15641"></path></svg>
