<?xml version="1.0" standalone="no"?><!DOCTYPE svg PUBLIC "-//W3C//DTD SVG 1.1//EN" "http://www.w3.org/Graphics/SVG/1.1/DTD/svg11.dtd"><svg t="1669366702624" class="icon" viewBox="0 0 1024 1024" version="1.1" xmlns="http://www.w3.org/2000/svg" p-id="6908" xmlns:xlink="http://www.w3.org/1999/xlink" width="32" height="32"><path d="M747.552 858.666667a40 40 0 0 1 0 80H276.448a40 40 0 0 1 0-80h471.104zM778.666667 85.333333c88.362667 0 160 71.637333 160 160v391.114667c0 88.362667-71.637333 160-160 160H245.333333c-88.362667 0-160-71.637333-160-160V245.333333c0-88.362667 71.637333-160 160-160h533.333334z m1.312 80H245.333333a80 80 0 0 0-80 78.688v392.426667c0 43.733333 35.093333 79.285333 78.688 80H778.666667a80 80 0 0 0 80-78.688V245.333333a80 80 0 0 0-78.688-80z" p-id="6909" fill="#ffffff"></path><path d="M469.333333 341.333333m42.666667 0l0 0q42.666667 0 42.666667 42.666667l0 341.333333q0 42.666667-42.666667 42.666667l0 0q-42.666667 0-42.666667-42.666667l0-341.333333q0-42.666667 42.666667-42.666667Z" p-id="6910" fill="#ffffff"></path><path d="M298.666667 469.333333m42.666666 0l0 0q42.666667 0 42.666667 42.666667l0 213.333333q0 42.666667-42.666667 42.666667l0 0q-42.666667 0-42.666666-42.666667l0-213.333333q0-42.666667 42.666666-42.666667Z" p-id="6911" fill="#ffffff"></path><path d="M640 576m42.666667 0l0 0q42.666667 0 42.666666 42.666667l0 106.666666q0 42.666667-42.666666 42.666667l0 0q-42.666667 0-42.666667-42.666667l0-106.666666q0-42.666667 42.666667-42.666667Z" p-id="6912" fill="#ffffff"></path></svg>